<?xml version="1.0" standalone="no"?>
<!DOCTYPE svg PUBLIC "-//W3C//DTD SVG 20010904//EN"
 "http://www.w3.org/TR/2001/REC-SVG-20010904/DTD/svg10.dtd">
<svg version="1.0" xmlns="http://www.w3.org/2000/svg"
 width="16.000000pt" height="16.000000pt" viewBox="0 0 16.000000 16.000000"
 preserveAspectRatio="xMidYMid meet">

<g transform="translate(0.000000,16.000000) scale(0.100000,-0.100000)"
fill="#000000" stroke="none">
<path d="M0 80 l0 -80 80 0 80 0 0 80 0 80 -80 0 -80 0 0 -80z m150 30 c0 -36
-3 -40 -24 -40 -14 0 -28 -4 -31 -10 -4 -6 7 -10 24 -10 24 0 31 -4 31 -20 0
-16 -6 -20 -32 -19 -31 2 -31 2 -5 6 37 6 34 23 -4 23 -28 0 -31 2 -25 25 4
14 2 25 -4 25 -5 0 -10 -4 -10 -10 0 -5 -11 -10 -25 -10 -34 0 -32 -20 3 -21
l27 -2 -27 -4 c-15 -2 -29 -12 -31 -21 -3 -9 -5 16 -6 56 l-1 72 70 0 70 0 0
-40z"/>
<path d="M20 115 c0 -18 5 -25 19 -25 28 0 37 20 9 21 l-23 0 23 9 c29 12 28
20 -3 20 -20 0 -25 -5 -25 -25z"/>
<path d="M92 118 c2 -15 11 -24 26 -26 26 -4 30 14 5 21 -17 4 -17 5 0 6 27 2
20 21 -9 21 -21 0 -25 -4 -22 -22z"/>
</g>
</svg>
